<svg width="170" height="74" viewBox="0 0 170 74" fill="none" xmlns="http://www.w3.org/2000/svg">
  <g clip-path="url(#clip0)">
    <path d="M169.432 71.1929H1.01758V2.78455H169.456V71.1929H169.432Z" fill="#0058A3"/>
    <path d="M4.30029 36.9887C4.30029 53.5236 38.2148 67.2584 85.2365 67.2584C132.258 67.2584 166.149 53.5236 166.149 36.9887C166.149 20.4539 132.234 6.71912 85.2365 6.71912C38.239 6.71912 4.30029 20.4539 4.30029 36.9887V36.9887Z" fill="#FFDB00"/>
    <path d="M57.9603 23.8333C57.5982 24.5575 57.5982 25.2575 57.5982 25.9816V35.0335C57.5982 35.0335 62.45 28.7334 63.5604 27.2368C64.4053 26.1264 65.4432 24.5575 65.4432 23.8333H81.278C80.1918 24.5575 78.9849 25.8609 77.9952 27.0678C77.1262 28.1299 72.202 34.1404 72.202 34.1404C72.202 34.1404 79.5159 45.2682 80.4573 46.6924C80.9884 47.4648 81.5677 48.189 82.2436 48.8407H64.019C64.019 48.1166 63.319 46.6441 62.5466 45.4855C61.7742 44.3268 57.5982 37.9784 57.5982 37.9784V46.6924C57.5982 47.4166 57.5982 48.1166 57.9603 48.8407H42.7772C43.1393 48.1166 43.1393 47.4166 43.1393 46.6924V25.9816C43.1393 25.2575 43.1393 24.5575 42.7772 23.8333H57.9603ZM114.179 23.8333H84.8747C85.2367 24.5575 85.2367 25.2575 85.2367 25.9816V46.6924C85.2367 47.4166 85.2367 48.1166 84.8747 48.8407H114.179V41.913C113.455 42.2751 112.755 42.2751 112.03 42.2751H99.6957V38.9922H111.548V33.7059H99.6957V30.399H112.03C112.755 30.399 113.455 30.399 114.179 30.7369V23.8333ZM154.78 46.6924C155.021 47.489 155.431 48.2131 155.962 48.8407H140.079C140.152 48.1166 139.886 47.4166 139.597 46.6924C139.597 46.6924 139.355 46.1131 139.017 45.2682L138.872 44.9062H129.724L129.579 45.2924C129.579 45.2924 129.314 45.9924 129.072 46.7166C128.831 47.4407 128.565 48.1407 128.662 48.8649H116.134C116.641 48.2373 117.027 47.5131 117.268 46.7166L124.776 26.0058C125.041 25.2816 125.307 24.5816 125.21 23.8574H146.379C146.186 24.5816 146.573 25.2816 146.838 26.0058C147.466 27.5748 154.249 45.2924 154.78 46.6924ZM136.869 39.6198L134.648 33.8266C134.455 33.2956 134.286 32.7404 134.165 32.1852C134.069 32.7404 133.924 33.2956 133.731 33.8266C133.658 34.068 132.717 36.6025 131.631 39.6198H136.869ZM35.2219 25.9816C35.2219 25.2575 35.2219 24.5575 35.5839 23.8333H19.0732C19.4353 24.5575 19.4353 25.2575 19.4353 25.9816V46.6924C19.4353 47.4166 19.4353 48.1166 19.0732 48.8407H35.5839C35.2219 48.1166 35.2219 47.4166 35.2219 46.6924V25.9816ZM149.711 25.8126C149.662 27.623 151.086 29.1438 152.921 29.192C154.731 29.2403 156.252 27.8161 156.3 25.9816C156.3 25.9334 156.3 25.8609 156.3 25.8126C156.325 24.0264 154.924 22.554 153.138 22.5298C153.09 22.5298 153.066 22.5298 153.018 22.5298C151.255 22.4574 149.783 23.8333 149.735 25.5954C149.686 25.6678 149.686 25.7402 149.711 25.8126H149.711ZM155.624 25.8126C155.673 27.261 154.514 28.492 153.066 28.5162C151.617 28.5644 150.386 27.4058 150.362 25.9575C150.362 25.9092 150.362 25.8609 150.362 25.7885C150.314 24.3885 151.4 23.2057 152.8 23.1574C152.873 23.1574 152.921 23.1574 152.993 23.1574C154.418 23.1333 155.6 24.2678 155.624 25.692C155.624 25.7402 155.624 25.7885 155.624 25.8126ZM154.611 27.792H153.959L153.186 26.392H152.342V27.792H151.762V23.8333H153.235C153.935 23.8575 154.466 24.4126 154.466 25.1126C154.466 25.5954 154.2 26.0299 153.766 26.2713L154.611 27.792ZM153.138 25.8126C153.524 25.8368 153.862 25.5471 153.862 25.1609C153.862 24.7747 153.597 24.4368 153.211 24.4368C153.186 24.4368 153.162 24.4368 153.138 24.4368H152.342V25.8368H153.138" fill="#0058A3"/>
  </g>
  <defs>
    <clipPath id="clip0">
      <rect width="168.438" height="68.4084" fill="white" transform="translate(1.01758 2.78455)"/>
    </clipPath>
  </defs>
</svg>
